<svg xmlns="http://www.w3.org/2000/svg" xmlns:xlink="http://www.w3.org/1999/xlink" width="2000" zoomAndPan="magnify" viewBox="0 0 1500 540.000001" height="720" preserveAspectRatio="xMidYMid meet" version="1.0"><defs><g/><clipPath id="904f851cc2"><path d="M 13.746094 69 L 415 69 L 415 469.867188 L 13.746094 469.867188 Z M 13.746094 69 " clip-rule="nonzero"/></clipPath><clipPath id="ebd029fef7"><path d="M 364 226 L 450.09375 226 L 450.09375 313 L 364 313 Z M 364 226 " clip-rule="nonzero"/></clipPath><clipPath id="ee1c36773e"><path d="M 145 159 L 308.488281 159 L 308.488281 386 L 145 386 Z M 145 159 " clip-rule="nonzero"/></clipPath><clipPath id="501ddfab12"><path d="M 84.859375 159 L 245 159 L 245 323 L 84.859375 323 Z M 84.859375 159 " clip-rule="nonzero"/></clipPath></defs><g clip-path="url(#904f851cc2)"><path fill="#ffffff" d="M 414.539062 269.5625 C 414.539062 379.980469 324.648438 469.867188 214.230469 469.867188 C 103.6875 469.867188 13.796875 379.980469 13.796875 269.5625 C 13.796875 159.140625 103.6875 69.253906 214.105469 69.253906 C 324.648438 69.128906 414.539062 159.015625 414.539062 269.5625 Z M 27.570312 269.5625 C 27.570312 372.34375 111.324219 456.097656 214.105469 456.097656 C 317.011719 456.097656 400.640625 372.34375 400.640625 269.5625 C 400.640625 166.652344 316.886719 83.027344 214.105469 83.027344 C 111.324219 82.902344 27.570312 166.652344 27.570312 269.5625 Z M 27.570312 269.5625 " fill-opacity="1" fill-rule="nonzero"/></g><g clip-path="url(#ebd029fef7)"><path fill="#ffffff" d="M 450.46875 269.5625 C 450.46875 293.222656 431.3125 312.378906 407.652344 312.378906 C 383.992188 312.378906 364.835938 293.222656 364.835938 269.5625 C 364.835938 245.902344 383.992188 226.746094 407.652344 226.746094 C 431.3125 226.746094 450.46875 245.902344 450.46875 269.5625 Z M 376.105469 269.5625 C 376.105469 286.964844 390.25 301.109375 407.652344 301.109375 C 425.054688 301.109375 439.199219 286.964844 439.199219 269.5625 C 439.199219 252.160156 425.054688 238.011719 407.652344 238.011719 C 390.25 238.011719 376.105469 252.160156 376.105469 269.5625 Z M 376.105469 269.5625 " fill-opacity="1" fill-rule="nonzero"/></g><g clip-path="url(#ee1c36773e)"><path fill="#ffffff" d="M 181.441406 276.503906 C 181.441406 285.203125 181.59375 293.011719 181.410156 300.820312 C 181.050781 316.125 186.0625 329.167969 198.03125 338.886719 C 211.785156 350.070312 227.390625 352.359375 243.726562 345.738281 C 259.78125 339.234375 269.085938 326.929688 271.289062 309.628906 C 271.886719 304.984375 271.941406 300.246094 271.949219 295.554688 C 272.003906 256.332031 271.964844 217.105469 272.011719 177.882812 C 272.019531 169.363281 277.175781 162.660156 285.113281 160.449219 C 296.40625 157.296875 307.894531 165.1875 307.933594 177.003906 C 308.066406 221.195312 308.207031 265.386719 307.515625 309.566406 C 307.085938 337.296875 292.929688 357.875 270.082031 372.507812 C 219.167969 405.101562 151.839844 372.296875 145.75 312.15625 C 145.40625 308.75 146.101562 306.105469 148.816406 303.824219 C 158.703125 295.476562 168.480469 286.992188 178.3125 278.582031 C 178.988281 278.015625 179.796875 277.59375 181.441406 276.503906 Z M 181.441406 276.503906 " fill-opacity="1" fill-rule="nonzero"/></g><g clip-path="url(#501ddfab12)"><path fill="#ffffff" d="M 244.558594 178.574219 C 244.558594 176.761719 244.261719 174.933594 243.945312 173.136719 C 241.75 160.402344 222.1875 155.890625 214.445312 163.414062 C 201.074219 176.417969 186.613281 188.304688 172.410156 200.425781 C 143.398438 225.203125 114.261719 249.855469 85.105469 274.480469 C 85.019531 274.550781 84.957031 274.621094 84.878906 274.691406 L 84.878906 322.105469 C 126.457031 286.765625 167.226562 252.117188 208.675781 216.878906 C 208.675781 219.46875 208.675781 221.015625 208.675781 222.550781 C 208.683594 249.082031 208.660156 275.617188 208.761719 302.144531 C 208.769531 304.96875 209.164062 307.933594 210.097656 310.578125 C 212.859375 318.386719 221.324219 323.328125 229.039062 322.011719 C 238.421875 320.402344 244.542969 313.144531 244.550781 303.25 C 244.605469 261.695312 244.589844 220.136719 244.558594 178.574219 Z M 244.558594 178.574219 " fill-opacity="1" fill-rule="nonzero"/></g><g fill="#ffffff" fill-opacity="1"><g transform="translate(519.711568, 271.924931)"><g><path d="M 50.671875 -19.203125 C 55.191406 -19.203125 58.898438 -20.273438 61.796875 -22.421875 C 64.703125 -24.578125 66.75 -27.539062 67.9375 -31.3125 C 68.257812 -32.28125 68.523438 -33.378906 68.734375 -34.609375 C 68.953125 -35.847656 69.140625 -37.351562 69.296875 -39.125 C 69.460938 -40.90625 69.570312 -43.085938 69.625 -45.671875 C 69.6875 -48.253906 69.71875 -51.320312 69.71875 -54.875 C 69.71875 -58.414062 69.6875 -61.476562 69.625 -64.0625 C 69.570312 -66.644531 69.460938 -68.820312 69.296875 -70.59375 C 69.140625 -72.375 68.953125 -73.878906 68.734375 -75.109375 C 68.523438 -76.347656 68.257812 -77.453125 67.9375 -78.421875 C 66.75 -82.191406 64.703125 -85.148438 61.796875 -87.296875 C 58.898438 -89.453125 55.191406 -90.53125 50.671875 -90.53125 C 46.148438 -90.53125 42.4375 -89.453125 39.53125 -87.296875 C 36.632812 -85.148438 34.59375 -82.191406 33.40625 -78.421875 C 33.082031 -77.453125 32.8125 -76.347656 32.59375 -75.109375 C 32.382812 -73.878906 32.195312 -72.375 32.03125 -70.59375 C 31.875 -68.820312 31.765625 -66.644531 31.703125 -64.0625 C 31.648438 -61.476562 31.625 -58.414062 31.625 -54.875 C 31.625 -51.320312 31.648438 -48.253906 31.703125 -45.671875 C 31.765625 -43.085938 31.875 -40.90625 32.03125 -39.125 C 32.195312 -37.351562 32.382812 -35.847656 32.59375 -34.609375 C 32.8125 -33.378906 33.082031 -32.28125 33.40625 -31.3125 C 34.59375 -27.539062 36.632812 -24.578125 39.53125 -22.421875 C 42.4375 -20.273438 46.148438 -19.203125 50.671875 -19.203125 Z M 50.671875 1.78125 C 41.097656 1.78125 32.734375 -0.421875 25.578125 -4.828125 C 18.421875 -9.242188 13.445312 -15.921875 10.65625 -24.859375 C 10.007812 -26.785156 9.492188 -28.664062 9.109375 -30.5 C 8.734375 -32.332031 8.4375 -34.375 8.21875 -36.625 C 8.007812 -38.882812 7.847656 -41.46875 7.734375 -44.375 C 7.628906 -47.28125 7.578125 -50.78125 7.578125 -54.875 C 7.578125 -58.957031 7.628906 -62.453125 7.734375 -65.359375 C 7.847656 -68.265625 8.007812 -70.84375 8.21875 -73.09375 C 8.4375 -75.351562 8.734375 -77.398438 9.109375 -79.234375 C 9.492188 -81.066406 10.007812 -82.953125 10.65625 -84.890625 C 13.445312 -93.703125 18.421875 -100.34375 25.578125 -104.8125 C 32.734375 -109.28125 41.097656 -111.515625 50.671875 -111.515625 C 60.242188 -111.515625 68.609375 -109.28125 75.765625 -104.8125 C 82.921875 -100.34375 87.894531 -93.703125 90.6875 -84.890625 C 91.332031 -82.953125 91.84375 -81.066406 92.21875 -79.234375 C 92.601562 -77.398438 92.898438 -75.351562 93.109375 -73.09375 C 93.328125 -70.84375 93.488281 -68.265625 93.59375 -65.359375 C 93.707031 -62.453125 93.765625 -58.957031 93.765625 -54.875 C 93.765625 -50.78125 93.707031 -47.28125 93.59375 -44.375 C 93.488281 -41.46875 93.328125 -38.882812 93.109375 -36.625 C 92.898438 -34.375 92.601562 -32.332031 92.21875 -30.5 C 91.84375 -28.664062 91.332031 -26.785156 90.6875 -24.859375 C 87.894531 -15.921875 82.921875 -9.242188 75.765625 -4.828125 C 68.609375 -0.421875 60.242188 1.78125 50.671875 1.78125 Z M 50.671875 1.78125 "/></g></g></g><g fill="#ffffff" fill-opacity="1"><g transform="translate(638.478574, 271.924931)"><g><path d="M 54.546875 -61.96875 C 59.066406 -61.96875 62.671875 -63.203125 65.359375 -65.671875 C 68.046875 -68.148438 69.390625 -71.488281 69.390625 -75.6875 C 69.390625 -79.769531 68.046875 -83.046875 65.359375 -85.515625 C 62.671875 -87.992188 59.066406 -89.234375 54.546875 -89.234375 L 35.1875 -89.234375 C 34.539062 -89.234375 34.21875 -88.910156 34.21875 -88.265625 L 34.21875 -62.9375 C 34.21875 -62.289062 34.539062 -61.96875 35.1875 -61.96875 Z M 71.171875 0 C 69.984375 0 69.175781 -0.535156 68.75 -1.609375 L 49.859375 -41.796875 L 35.1875 -41.796875 C 34.539062 -41.796875 34.21875 -41.472656 34.21875 -40.828125 L 34.21875 -1.609375 C 34.21875 -0.535156 33.675781 0 32.59375 0 L 12.109375 0 C 11.023438 0 10.484375 -0.535156 10.484375 -1.609375 L 10.484375 -108.125 C 10.484375 -109.195312 11.023438 -109.734375 12.109375 -109.734375 L 55.828125 -109.734375 C 61.429688 -109.734375 66.515625 -108.898438 71.078125 -107.234375 C 75.648438 -105.566406 79.578125 -103.226562 82.859375 -100.21875 C 86.140625 -97.207031 88.664062 -93.601562 90.4375 -89.40625 C 92.21875 -85.207031 93.109375 -80.632812 93.109375 -75.6875 C 93.109375 -68.582031 91.382812 -62.394531 87.9375 -57.125 C 84.5 -51.851562 79.71875 -47.875 73.59375 -45.1875 L 95.21875 -1.9375 C 95.425781 -1.394531 95.421875 -0.9375 95.203125 -0.5625 C 94.992188 -0.1875 94.617188 0 94.078125 0 Z M 71.171875 0 "/></g></g></g><g fill="#ffffff" fill-opacity="1"><g transform="translate(756.600123, 271.924931)"><g><path d="M 34.21875 -20.171875 C 34.21875 -19.523438 34.539062 -19.203125 35.1875 -19.203125 L 53.25 -19.203125 C 58.09375 -19.203125 61.773438 -20.410156 64.296875 -22.828125 C 66.828125 -25.253906 68.09375 -28.617188 68.09375 -32.921875 C 68.09375 -37.117188 66.828125 -40.453125 64.296875 -42.921875 C 61.773438 -45.398438 58.09375 -46.640625 53.25 -46.640625 L 35.1875 -46.640625 C 34.539062 -46.640625 34.21875 -46.316406 34.21875 -45.671875 Z M 51.96875 -64.875 C 56.476562 -64.875 60 -66.003906 62.53125 -68.265625 C 65.0625 -70.523438 66.328125 -73.695312 66.328125 -77.78125 C 66.328125 -81.875 65.0625 -85.019531 62.53125 -87.21875 C 60 -89.425781 56.476562 -90.53125 51.96875 -90.53125 L 35.1875 -90.53125 C 34.539062 -90.53125 34.21875 -90.207031 34.21875 -89.5625 L 34.21875 -65.84375 C 34.21875 -65.195312 34.539062 -64.875 35.1875 -64.875 Z M 10.484375 -108.125 C 10.484375 -109.195312 11.023438 -109.734375 12.109375 -109.734375 L 54.875 -109.734375 C 66.8125 -109.734375 75.628906 -107.039062 81.328125 -101.65625 C 87.035156 -96.28125 89.890625 -89.238281 89.890625 -80.53125 C 89.890625 -74.5 88.675781 -69.597656 86.25 -65.828125 C 83.832031 -62.066406 80.796875 -59.164062 77.140625 -57.125 L 77.140625 -56.796875 C 78.960938 -56.148438 80.757812 -55.101562 82.53125 -53.65625 C 84.3125 -52.207031 85.875 -50.40625 87.21875 -48.25 C 88.5625 -46.101562 89.664062 -43.65625 90.53125 -40.90625 C 91.394531 -38.164062 91.828125 -35.179688 91.828125 -31.953125 C 91.828125 -21.085938 88.460938 -13.046875 81.734375 -7.828125 C 75.015625 -2.609375 65.679688 0 53.734375 0 L 12.109375 0 C 11.023438 0 10.484375 -0.535156 10.484375 -1.609375 Z M 10.484375 -108.125 "/></g></g></g><g fill="#ffffff" fill-opacity="1"><g transform="translate(872.462516, 271.924931)"><g><path d="M 10.484375 -108.125 C 10.484375 -109.195312 11.023438 -109.734375 12.109375 -109.734375 L 32.59375 -109.734375 C 33.675781 -109.734375 34.21875 -109.195312 34.21875 -108.125 L 34.21875 -1.609375 C 34.21875 -0.535156 33.675781 0 32.59375 0 L 12.109375 0 C 11.023438 0 10.484375 -0.535156 10.484375 -1.609375 Z M 10.484375 -108.125 "/></g></g></g><g fill="#ffffff" fill-opacity="1"><g transform="translate(934.589787, 271.924931)"><g><path d="M 34.703125 0 C 33.617188 0 33.078125 -0.535156 33.078125 -1.609375 L 33.078125 -87.625 C 33.078125 -88.269531 32.753906 -88.59375 32.109375 -88.59375 L 4.359375 -88.59375 C 3.285156 -88.59375 2.75 -89.128906 2.75 -90.203125 L 2.75 -108.125 C 2.75 -109.195312 3.285156 -109.734375 4.359375 -109.734375 L 85.53125 -109.734375 C 86.601562 -109.734375 87.140625 -109.195312 87.140625 -108.125 L 87.140625 -90.203125 C 87.140625 -89.128906 86.601562 -88.59375 85.53125 -88.59375 L 57.765625 -88.59375 C 57.117188 -88.59375 56.796875 -88.269531 56.796875 -87.625 L 56.796875 -1.609375 C 56.796875 -0.535156 56.257812 0 55.1875 0 Z M 34.703125 0 "/></g></g></g><g fill="#ffffff" fill-opacity="1"><g transform="translate(1041.899756, 271.924931)"><g><path d="M 64.71875 -40.984375 L 52.28125 -79.390625 L 51.796875 -79.390625 L 39.375 -40.984375 Z M 40.015625 -108.125 C 40.335938 -109.195312 41.039062 -109.734375 42.125 -109.734375 L 62.453125 -109.734375 C 63.523438 -109.734375 64.222656 -109.195312 64.546875 -108.125 L 101.671875 -1.609375 C 101.992188 -0.535156 101.613281 0 100.53125 0 L 79.5625 0 C 78.476562 0 77.773438 -0.535156 77.453125 -1.609375 L 71.171875 -20.8125 L 32.765625 -20.8125 L 26.625 -1.609375 C 26.300781 -0.535156 25.601562 0 24.53125 0 L 3.390625 0 C 2.316406 0 1.941406 -0.535156 2.265625 -1.609375 Z M 40.015625 -108.125 "/></g></g></g><g fill="#ffffff" fill-opacity="1"><g transform="translate(1163.248648, 271.924931)"><g><path d="M 10.484375 -108.125 C 10.484375 -109.195312 11.023438 -109.734375 12.109375 -109.734375 L 32.59375 -109.734375 C 33.675781 -109.734375 34.21875 -109.195312 34.21875 -108.125 L 34.21875 -22.109375 C 34.21875 -21.460938 34.539062 -21.140625 35.1875 -21.140625 L 83.59375 -21.140625 C 84.664062 -21.140625 85.203125 -20.601562 85.203125 -19.53125 L 85.203125 -1.609375 C 85.203125 -0.535156 84.664062 0 83.59375 0 L 12.109375 0 C 11.023438 0 10.484375 -0.535156 10.484375 -1.609375 Z M 10.484375 -108.125 "/></g></g></g><g fill="#ffffff" fill-opacity="1"><g transform="translate(1269.429065, 271.924931)"><g/></g></g><g fill="#ffffff" fill-opacity="1"><g transform="translate(1324.940286, 271.924931)"><g><path d="M 10.484375 -108.125 C 10.484375 -109.195312 11.023438 -109.734375 12.109375 -109.734375 L 32.59375 -109.734375 C 33.675781 -109.734375 34.21875 -109.195312 34.21875 -108.125 L 34.21875 -1.609375 C 34.21875 -0.535156 33.675781 0 32.59375 0 L 12.109375 0 C 11.023438 0 10.484375 -0.535156 10.484375 -1.609375 Z M 10.484375 -108.125 "/></g></g></g><g fill="#ffffff" fill-opacity="1"><g transform="translate(1387.067585, 271.924931)"><g><path d="M 34.703125 0 C 33.617188 0 33.078125 -0.535156 33.078125 -1.609375 L 33.078125 -87.625 C 33.078125 -88.269531 32.753906 -88.59375 32.109375 -88.59375 L 4.359375 -88.59375 C 3.285156 -88.59375 2.75 -89.128906 2.75 -90.203125 L 2.75 -108.125 C 2.75 -109.195312 3.285156 -109.734375 4.359375 -109.734375 L 85.53125 -109.734375 C 86.601562 -109.734375 87.140625 -109.195312 87.140625 -108.125 L 87.140625 -90.203125 C 87.140625 -89.128906 86.601562 -88.59375 85.53125 -88.59375 L 57.765625 -88.59375 C 57.117188 -88.59375 56.796875 -88.269531 56.796875 -87.625 L 56.796875 -1.609375 C 56.796875 -0.535156 56.257812 0 55.1875 0 Z M 34.703125 0 "/></g></g></g><g fill="#ffffff" fill-opacity="1"><g transform="translate(745.137499, 383.027283)"><g><path d="M 21.890625 0.78125 C 18.148438 0.78125 14.851562 0.00390625 12 -1.546875 C 9.144531 -3.109375 6.910156 -5.289062 5.296875 -8.09375 C 3.679688 -10.90625 2.820312 -14.179688 2.71875 -17.921875 L 8.953125 -17.921875 C 9.160156 -14.023438 10.394531 -10.90625 12.65625 -8.5625 C 14.914062 -6.226562 17.992188 -5.0625 21.890625 -5.0625 C 25.210938 -5.0625 27.859375 -5.878906 29.828125 -7.515625 C 31.804688 -9.148438 32.796875 -11.316406 32.796875 -14.015625 C 32.796875 -16.148438 32.234375 -17.90625 31.109375 -19.28125 C 29.992188 -20.65625 28.601562 -21.726562 26.9375 -22.5 C 25.28125 -23.28125 23.050781 -24.113281 20.25 -25 C 16.820312 -26.195312 14.09375 -27.300781 12.0625 -28.3125 C 10.039062 -29.320312 8.300781 -30.835938 6.84375 -32.859375 C 5.394531 -34.890625 4.671875 -37.566406 4.671875 -40.890625 C 4.671875 -43.585938 5.394531 -46.023438 6.84375 -48.203125 C 8.300781 -50.390625 10.289062 -52.117188 12.8125 -53.390625 C 15.332031 -54.660156 18.175781 -55.296875 21.34375 -55.296875 C 24.613281 -55.296875 27.554688 -54.554688 30.171875 -53.078125 C 32.796875 -51.597656 34.890625 -49.535156 36.453125 -46.890625 C 38.015625 -44.242188 38.867188 -41.207031 39.015625 -37.78125 L 32.796875 -37.78125 C 32.585938 -41.414062 31.414062 -44.269531 29.28125 -46.34375 C 27.15625 -48.414062 24.429688 -49.453125 21.109375 -49.453125 C 18.253906 -49.453125 15.878906 -48.710938 13.984375 -47.234375 C 12.085938 -45.753906 11.140625 -43.640625 11.140625 -40.890625 C 11.140625 -38.921875 11.671875 -37.285156 12.734375 -35.984375 C 13.796875 -34.679688 15.117188 -33.664062 16.703125 -32.9375 C 18.285156 -32.21875 20.484375 -31.363281 23.296875 -30.375 C 26.671875 -29.28125 29.429688 -28.1875 31.578125 -27.09375 C 33.734375 -26.007812 35.550781 -24.414062 37.03125 -22.3125 C 38.507812 -20.207031 39.25 -17.441406 39.25 -14.015625 C 39.25 -11.210938 38.492188 -8.679688 36.984375 -6.421875 C 35.484375 -4.160156 33.410156 -2.394531 30.765625 -1.125 C 28.117188 0.144531 25.160156 0.78125 21.890625 0.78125 Z M 21.890625 0.78125 "/></g></g></g><g fill="#ffffff" fill-opacity="1"><g transform="translate(799.665012, 383.027283)"><g><path d="M 30.84375 0.78125 C 25.707031 0.78125 20.984375 -0.460938 16.671875 -2.953125 C 12.359375 -5.453125 8.953125 -8.851562 6.453125 -13.15625 C 3.960938 -17.46875 2.71875 -22.171875 2.71875 -27.265625 C 2.71875 -32.347656 3.960938 -37.046875 6.453125 -41.359375 C 8.953125 -45.671875 12.359375 -49.070312 16.671875 -51.5625 C 20.984375 -54.050781 25.707031 -55.296875 30.84375 -55.296875 C 35.988281 -55.296875 40.710938 -54.050781 45.015625 -51.5625 C 49.328125 -49.070312 52.726562 -45.671875 55.21875 -41.359375 C 57.71875 -37.046875 58.96875 -32.347656 58.96875 -27.265625 C 58.96875 -22.171875 57.71875 -17.46875 55.21875 -13.15625 C 52.726562 -8.851562 49.328125 -5.453125 45.015625 -2.953125 C 40.710938 -0.460938 35.988281 0.78125 30.84375 0.78125 Z M 30.84375 -5.0625 C 34.789062 -5.0625 38.410156 -6.046875 41.703125 -8.015625 C 45.003906 -9.992188 47.628906 -12.671875 49.578125 -16.046875 C 51.523438 -19.421875 52.5 -23.160156 52.5 -27.265625 C 52.5 -31.367188 51.523438 -35.109375 49.578125 -38.484375 C 47.628906 -41.859375 45.003906 -44.53125 41.703125 -46.5 C 38.410156 -48.46875 34.789062 -49.453125 30.84375 -49.453125 C 26.894531 -49.453125 23.269531 -48.46875 19.96875 -46.5 C 16.675781 -44.53125 14.054688 -41.859375 12.109375 -38.484375 C 10.160156 -35.109375 9.1875 -31.367188 9.1875 -27.265625 C 9.1875 -23.160156 10.160156 -19.421875 12.109375 -16.046875 C 14.054688 -12.671875 16.675781 -9.992188 19.96875 -8.015625 C 23.269531 -6.046875 26.894531 -5.0625 30.84375 -5.0625 Z M 30.84375 -5.0625 "/></g></g></g><g fill="#ffffff" fill-opacity="1"><g transform="translate(873.900177, 383.027283)"><g><path d="M 33.109375 0 L 5.84375 0 L 5.84375 -54.53125 L 12.078125 -54.53125 L 12.078125 -5.84375 L 33.109375 -5.84375 Z M 33.109375 0 "/></g></g></g><g fill="#ffffff" fill-opacity="1"><g transform="translate(921.261252, 383.027283)"><g><path d="M 25.46875 0.78125 C 21.414062 0.78125 17.84375 -0.0859375 14.75 -1.828125 C 11.664062 -3.566406 9.28125 -6.019531 7.59375 -9.1875 C 5.90625 -12.351562 5.0625 -15.988281 5.0625 -20.09375 L 5.0625 -54.53125 L 11.296875 -54.53125 L 11.296875 -20.09375 C 11.296875 -15.570312 12.566406 -11.9375 15.109375 -9.1875 C 17.648438 -6.4375 21.101562 -5.0625 25.46875 -5.0625 C 29.832031 -5.0625 33.285156 -6.4375 35.828125 -9.1875 C 38.367188 -11.9375 39.640625 -15.570312 39.640625 -20.09375 L 39.640625 -54.53125 L 45.875 -54.53125 L 45.875 -20.09375 C 45.875 -15.988281 45.03125 -12.351562 43.34375 -9.1875 C 41.65625 -6.019531 39.265625 -3.566406 36.171875 -1.828125 C 33.085938 -0.0859375 29.519531 0.78125 25.46875 0.78125 Z M 25.46875 0.78125 "/></g></g></g><g fill="#ffffff" fill-opacity="1"><g transform="translate(984.746791, 383.027283)"><g><path d="M 21.421875 0 L 15.1875 0 L 15.1875 -48.6875 L 1.171875 -48.6875 L 1.171875 -54.53125 L 35.4375 -54.53125 L 35.4375 -48.6875 L 21.421875 -48.6875 Z M 21.421875 0 "/></g></g></g><g fill="#ffffff" fill-opacity="1"><g transform="translate(1033.899495, 383.027283)"><g><path d="M 12.46875 0 L 6.234375 0 L 6.234375 -54.53125 L 12.46875 -54.53125 Z M 12.46875 0 "/></g></g></g><g fill="#ffffff" fill-opacity="1"><g transform="translate(1065.136134, 383.027283)"><g><path d="M 30.84375 0.78125 C 25.707031 0.78125 20.984375 -0.460938 16.671875 -2.953125 C 12.359375 -5.453125 8.953125 -8.851562 6.453125 -13.15625 C 3.960938 -17.46875 2.71875 -22.171875 2.71875 -27.265625 C 2.71875 -32.347656 3.960938 -37.046875 6.453125 -41.359375 C 8.953125 -45.671875 12.359375 -49.070312 16.671875 -51.5625 C 20.984375 -54.050781 25.707031 -55.296875 30.84375 -55.296875 C 35.988281 -55.296875 40.710938 -54.050781 45.015625 -51.5625 C 49.328125 -49.070312 52.726562 -45.671875 55.21875 -41.359375 C 57.71875 -37.046875 58.96875 -32.347656 58.96875 -27.265625 C 58.96875 -22.171875 57.71875 -17.46875 55.21875 -13.15625 C 52.726562 -8.851562 49.328125 -5.453125 45.015625 -2.953125 C 40.710938 -0.460938 35.988281 0.78125 30.84375 0.78125 Z M 30.84375 -5.0625 C 34.789062 -5.0625 38.410156 -6.046875 41.703125 -8.015625 C 45.003906 -9.992188 47.628906 -12.671875 49.578125 -16.046875 C 51.523438 -19.421875 52.5 -23.160156 52.5 -27.265625 C 52.5 -31.367188 51.523438 -35.109375 49.578125 -38.484375 C 47.628906 -41.859375 45.003906 -44.53125 41.703125 -46.5 C 38.410156 -48.46875 34.789062 -49.453125 30.84375 -49.453125 C 26.894531 -49.453125 23.269531 -48.46875 19.96875 -46.5 C 16.675781 -44.53125 14.054688 -41.859375 12.109375 -38.484375 C 10.160156 -35.109375 9.1875 -31.367188 9.1875 -27.265625 C 9.1875 -23.160156 10.160156 -19.421875 12.109375 -16.046875 C 14.054688 -12.671875 16.675781 -9.992188 19.96875 -8.015625 C 23.269531 -6.046875 26.894531 -5.0625 30.84375 -5.0625 Z M 30.84375 -5.0625 "/></g></g></g><g fill="#ffffff" fill-opacity="1"><g transform="translate(1139.371305, 383.027283)"><g><path d="M 45.71875 -6 L 45.71875 -54.53125 L 51.796875 -54.53125 L 51.796875 0 L 48.0625 0 L 11.921875 -48.53125 L 11.921875 0 L 5.84375 0 L 5.84375 -54.53125 L 9.578125 -54.53125 Z M 45.71875 -6 "/></g></g></g><g fill="#ffffff" fill-opacity="1"><g transform="translate(1209.55591, 383.027283)"><g><path d="M 21.890625 0.78125 C 18.148438 0.78125 14.851562 0.00390625 12 -1.546875 C 9.144531 -3.109375 6.910156 -5.289062 5.296875 -8.09375 C 3.679688 -10.90625 2.820312 -14.179688 2.71875 -17.921875 L 8.953125 -17.921875 C 9.160156 -14.023438 10.394531 -10.90625 12.65625 -8.5625 C 14.914062 -6.226562 17.992188 -5.0625 21.890625 -5.0625 C 25.210938 -5.0625 27.859375 -5.878906 29.828125 -7.515625 C 31.804688 -9.148438 32.796875 -11.316406 32.796875 -14.015625 C 32.796875 -16.148438 32.234375 -17.90625 31.109375 -19.28125 C 29.992188 -20.65625 28.601562 -21.726562 26.9375 -22.5 C 25.28125 -23.28125 23.050781 -24.113281 20.25 -25 C 16.820312 -26.195312 14.09375 -27.300781 12.0625 -28.3125 C 10.039062 -29.320312 8.300781 -30.835938 6.84375 -32.859375 C 5.394531 -34.890625 4.671875 -37.566406 4.671875 -40.890625 C 4.671875 -43.585938 5.394531 -46.023438 6.84375 -48.203125 C 8.300781 -50.390625 10.289062 -52.117188 12.8125 -53.390625 C 15.332031 -54.660156 18.175781 -55.296875 21.34375 -55.296875 C 24.613281 -55.296875 27.554688 -54.554688 30.171875 -53.078125 C 32.796875 -51.597656 34.890625 -49.535156 36.453125 -46.890625 C 38.015625 -44.242188 38.867188 -41.207031 39.015625 -37.78125 L 32.796875 -37.78125 C 32.585938 -41.414062 31.414062 -44.269531 29.28125 -46.34375 C 27.15625 -48.414062 24.429688 -49.453125 21.109375 -49.453125 C 18.253906 -49.453125 15.878906 -48.710938 13.984375 -47.234375 C 12.085938 -45.753906 11.140625 -43.640625 11.140625 -40.890625 C 11.140625 -38.921875 11.671875 -37.285156 12.734375 -35.984375 C 13.796875 -34.679688 15.117188 -33.664062 16.703125 -32.9375 C 18.285156 -32.21875 20.484375 -31.363281 23.296875 -30.375 C 26.671875 -29.28125 29.429688 -28.1875 31.578125 -27.09375 C 33.734375 -26.007812 35.550781 -24.414062 37.03125 -22.3125 C 38.507812 -20.207031 39.25 -17.441406 39.25 -14.015625 C 39.25 -11.210938 38.492188 -8.679688 36.984375 -6.421875 C 35.484375 -4.160156 33.410156 -2.394531 30.765625 -1.125 C 28.117188 0.144531 25.160156 0.78125 21.890625 0.78125 Z M 21.890625 0.78125 "/></g></g></g><path stroke-linecap="butt" transform="matrix(0.909061, -0.000000000000000451, 0.000000000000000451, 0.909061, 525.424522, 353.011213)" fill="none" stroke-linejoin="miter" d="M 0.00138498 4.001081 L 206.00904 4.001081 " stroke="#ffffff" stroke-width="8" stroke-opacity="1" stroke-miterlimit="4"/><path stroke-linecap="butt" transform="matrix(0.909061, 0, 0, 0.909061, 1283.993678, 351.222757)" fill="none" stroke-linejoin="miter" d="M -0.0016399 4.000414 L 209.843253 4.000414 " stroke="#ffffff" stroke-width="8" stroke-opacity="1" stroke-miterlimit="4"/></svg>