<svg xmlns="http://www.w3.org/2000/svg" xmlns:xlink="http://www.w3.org/1999/xlink" width="500" zoomAndPan="magnify" viewBox="0 0 375 374.999991" height="500" preserveAspectRatio="xMidYMid meet" version="1.0"><defs><clipPath id="bd7be9b822"><path d="M 7.320312 22.058594 L 338 22.058594 L 338 352.808594 L 7.320312 352.808594 Z M 7.320312 22.058594 " clip-rule="nonzero"/></clipPath><clipPath id="63dd8a2935"><path d="M 296 152 L 367.320312 152 L 367.320312 223 L 296 223 Z M 296 152 " clip-rule="nonzero"/></clipPath><clipPath id="3b5ccd0045"><path d="M 116 96 L 250.492188 96 L 250.492188 284 L 116 284 Z M 116 96 " clip-rule="nonzero"/></clipPath></defs><g clip-path="url(#bd7be9b822)"><path fill="#ac6bff" d="M 337.988281 187.550781 C 337.988281 278.648438 263.828125 352.808594 172.726562 352.808594 C 81.527344 352.808594 7.367188 278.648438 7.367188 187.550781 C 7.367188 96.453125 81.527344 22.292969 172.625 22.292969 C 263.828125 22.1875 337.988281 96.347656 337.988281 187.550781 Z M 18.726562 187.550781 C 18.726562 272.347656 87.824219 341.449219 172.625 341.449219 C 257.527344 341.449219 326.523438 272.347656 326.523438 187.550781 C 326.523438 102.648438 257.421875 33.652344 172.625 33.652344 C 87.824219 33.550781 18.726562 102.648438 18.726562 187.550781 Z M 18.726562 187.550781 " fill-opacity="1" fill-rule="nonzero"/></g><g clip-path="url(#63dd8a2935)"><path fill="#ac6bff" d="M 367.628906 187.550781 C 367.628906 207.070312 351.828125 222.875 332.304688 222.875 C 312.785156 222.875 296.980469 207.070312 296.980469 187.550781 C 296.980469 168.027344 312.785156 152.226562 332.304688 152.226562 C 351.828125 152.226562 367.628906 168.027344 367.628906 187.550781 Z M 306.277344 187.550781 C 306.277344 201.90625 317.949219 213.578125 332.304688 213.578125 C 346.664062 213.578125 358.335938 201.90625 358.335938 187.550781 C 358.335938 173.191406 346.664062 161.523438 332.304688 161.523438 C 317.949219 161.523438 306.277344 173.191406 306.277344 187.550781 Z M 306.277344 187.550781 " fill-opacity="1" fill-rule="nonzero"/></g><g clip-path="url(#3b5ccd0045)"><path fill="#ac6bff" d="M 145.675781 193.277344 C 145.675781 200.457031 145.800781 206.898438 145.652344 213.335938 C 145.355469 225.96875 149.488281 236.726562 159.363281 244.746094 C 170.710938 253.972656 183.585938 255.859375 197.0625 250.398438 C 210.308594 245.03125 217.984375 234.882812 219.804688 220.605469 C 220.296875 216.773438 220.339844 212.867188 220.347656 208.996094 C 220.394531 176.632812 220.359375 144.273438 220.398438 111.914062 C 220.40625 104.882812 224.660156 99.355469 231.210938 97.53125 C 240.523438 94.925781 250 101.4375 250.035156 111.1875 C 250.144531 147.644531 250.261719 184.105469 249.691406 220.554688 C 249.335938 243.433594 237.65625 260.410156 218.808594 272.484375 C 176.800781 299.375 121.253906 272.308594 116.230469 222.691406 C 115.945312 219.882812 116.519531 217.699219 118.761719 215.816406 C 126.917969 208.929688 134.984375 201.933594 143.09375 194.992188 C 143.652344 194.527344 144.316406 194.175781 145.675781 193.277344 Z M 145.675781 193.277344 " fill-opacity="1" fill-rule="nonzero"/></g><path fill="#ac6bff" d="M 197.75 112.484375 C 197.75 110.988281 197.503906 109.480469 197.242188 107.996094 C 195.429688 97.492188 179.292969 93.769531 172.902344 99.976562 C 161.875 110.703125 149.941406 120.511719 138.226562 130.511719 C 114.289062 150.953125 90.253906 171.292969 66.199219 191.605469 C 66.125 191.664062 66.074219 191.722656 66.007812 191.78125 L 66.007812 230.898438 C 100.3125 201.742188 133.949219 173.15625 168.144531 144.085938 C 168.144531 146.222656 168.144531 147.496094 168.144531 148.765625 C 168.152344 170.652344 168.132812 192.546875 168.21875 214.433594 C 168.222656 216.761719 168.546875 219.210938 169.316406 221.390625 C 171.597656 227.832031 178.582031 231.910156 184.945312 230.824219 C 192.6875 229.496094 197.734375 223.507812 197.742188 215.34375 C 197.789062 181.0625 197.773438 146.773438 197.75 112.484375 Z M 197.75 112.484375 " fill-opacity="1" fill-rule="nonzero"/></svg>