<svg xmlns="http://www.w3.org/2000/svg" xmlns:xlink="http://www.w3.org/1999/xlink" width="3000" zoomAndPan="magnify" viewBox="0 0 2250 2250.000011" height="3000" preserveAspectRatio="xMidYMid meet" version="1.0"><defs><clipPath id="63e87e61a2"><path d="M 55.210938 143.851562 L 2019 143.851562 L 2019 2105.84375 L 55.210938 2105.84375 Z M 55.210938 143.851562 " clip-rule="nonzero"/></clipPath><clipPath id="7de9bb8e0d"><path d="M 1774 914 L 2190.320312 914 L 2190.320312 1335 L 1774 1335 Z M 1774 914 " clip-rule="nonzero"/></clipPath><clipPath id="89d57a919e"><path d="M 403.550781 586 L 1186 586 L 1186 1383 L 403.550781 1383 Z M 403.550781 586 " clip-rule="nonzero"/></clipPath></defs><g clip-path="url(#63e87e61a2)"><path fill="#ffffff" d="M 2018.355469 1124.703125 C 2018.355469 1665.558594 1578.070312 2105.84375 1037.21875 2105.84375 C 495.75 2105.84375 55.464844 1665.558594 55.464844 1124.703125 C 55.464844 583.851562 495.75 143.5625 1036.605469 143.5625 C 1578.070312 142.949219 2018.355469 583.238281 2018.355469 1124.703125 Z M 122.917969 1124.703125 C 122.917969 1628.152344 533.15625 2038.390625 1036.605469 2038.390625 C 1540.664062 2038.390625 1950.289062 1628.152344 1950.289062 1124.703125 C 1950.289062 620.644531 1540.050781 211.015625 1036.605469 211.015625 C 533.15625 210.402344 122.917969 620.644531 122.917969 1124.703125 Z M 122.917969 1124.703125 " fill-opacity="1" fill-rule="nonzero"/></g><g clip-path="url(#7de9bb8e0d)"><path fill="#ffffff" d="M 2194.347656 1124.703125 C 2194.347656 1240.601562 2100.527344 1334.421875 1984.628906 1334.421875 C 1868.734375 1334.421875 1774.910156 1240.601562 1774.910156 1124.703125 C 1774.910156 1008.804688 1868.734375 914.984375 1984.628906 914.984375 C 2100.527344 914.984375 2194.347656 1008.804688 2194.347656 1124.703125 Z M 1830.101562 1124.703125 C 1830.101562 1209.941406 1899.394531 1279.234375 1984.628906 1279.234375 C 2069.867188 1279.234375 2139.160156 1209.941406 2139.160156 1124.703125 C 2139.160156 1039.46875 2069.867188 970.175781 1984.628906 970.175781 C 1899.394531 970.175781 1830.101562 1039.46875 1830.101562 1124.703125 Z M 1830.101562 1124.703125 " fill-opacity="1" fill-rule="nonzero"/></g><path fill="#ffffff" d="M 876.609375 1158.753906 C 876.609375 1201.375 877.339844 1239.613281 876.457031 1277.855469 C 874.691406 1352.835938 899.246094 1416.710938 957.855469 1464.328125 C 1025.230469 1519.09375 1101.671875 1530.316406 1181.6875 1497.878906 C 1260.320312 1466.019531 1305.898438 1405.757812 1316.699219 1321.015625 C 1319.621094 1298.261719 1319.890625 1275.046875 1319.929688 1252.066406 C 1320.195312 1059.941406 1320.003906 867.820312 1320.234375 675.695312 C 1320.273438 633.960938 1345.523438 601.136719 1384.417969 590.300781 C 1439.722656 574.851562 1495.984375 613.511719 1496.179688 671.394531 C 1496.832031 887.84375 1497.523438 1104.292969 1494.140625 1320.707031 C 1492.027344 1456.527344 1422.695312 1557.332031 1310.78125 1629.011719 C 1061.394531 1788.65625 731.605469 1627.972656 701.78125 1333.390625 C 700.089844 1316.710938 703.511719 1303.757812 716.808594 1292.574219 C 765.234375 1251.683594 813.121094 1210.136719 861.277344 1168.9375 C 864.582031 1166.171875 868.539062 1164.09375 876.609375 1158.753906 Z M 876.609375 1158.753906 " fill-opacity="1" fill-rule="nonzero"/><g clip-path="url(#89d57a919e)"><path fill="#ffffff" d="M 1185.761719 679.078125 C 1185.761719 670.203125 1184.300781 661.246094 1182.761719 652.445312 C 1172 590.070312 1076.191406 567.972656 1038.257812 604.828125 C 972.769531 668.511719 901.9375 726.734375 832.375 786.113281 C 690.253906 907.480469 547.554688 1028.238281 404.738281 1148.835938 C 404.316406 1149.183594 404.007812 1149.527344 403.625 1149.875 L 403.625 1382.121094 C 607.277344 1209.023438 806.972656 1039.304688 1010.007812 866.707031 C 1010.007812 879.386719 1010.007812 886.960938 1010.007812 894.492188 C 1010.046875 1024.433594 1009.933594 1154.410156 1010.433594 1284.347656 C 1010.472656 1298.183594 1012.390625 1312.710938 1016.964844 1325.664062 C 1030.496094 1363.902344 1071.960938 1388.117188 1109.742188 1381.660156 C 1155.707031 1373.78125 1185.683594 1338.230469 1185.722656 1289.769531 C 1185.992188 1086.230469 1185.914062 882.65625 1185.761719 679.078125 Z M 1185.761719 679.078125 " fill-opacity="1" fill-rule="nonzero"/></g></svg>